# 3ds Max Wavefront OBJ Exporter v0.97b - (c)2007 guruware
# File Created: 02.03.2021 14:51:10

mtllib floor.mtl

#
# object floor
#

v  -13.0153 0.5000 50.0000
v  11.9847 0.5000 50.0000
v  11.9847 0.5000 25.0000
v  -13.0153 0.5000 25.0000
v  36.9847 0.5000 50.0000
v  36.9847 0.5000 25.0000
v  11.9847 0.5000 -0.0000
v  -13.0153 0.5000 -0.0000
v  36.9847 0.5000 -0.0000
v  61.9847 0.5000 25.0000
v  61.9847 0.5000 -0.0000
v  -38.0153 0.5000 -0.0000
v  -13.0153 0.5000 -25.0000
v  -38.0153 0.5000 -25.0000
v  11.9847 0.5000 -25.0000
v  36.9847 0.5000 -25.0000
v  61.9847 0.5000 -25.0000
v  -13.0153 0.5000 -50.0000
v  -38.0153 0.5000 -50.0000
v  11.9847 0.5000 -50.0000
v  36.9847 0.5000 -50.0000
v  61.9847 0.5000 -50.0000
v  -61.9847 0.5000 -25.0000
v  -61.9847 0.5000 -0.0000
v  -61.9847 0.5000 -50.0000
v  11.9847 -0.5000 25.0000
v  11.9847 -0.5000 50.0000
v  -13.0153 -0.5000 50.0000
v  -13.0153 -0.5000 25.0000
v  36.9847 -0.5000 25.0000
v  36.9847 -0.5000 50.0000
v  11.9847 -0.5000 -0.0000
v  -13.0153 -0.5000 -0.0000
v  36.9847 -0.5000 -0.0000
v  61.9847 -0.5000 -0.0000
v  61.9847 -0.5000 25.0000
v  -13.0153 -0.5000 -25.0000
v  -38.0153 -0.5000 -0.0000
v  -38.0153 -0.5000 -25.0000
v  11.9847 -0.5000 -25.0000
v  36.9847 -0.5000 -25.0000
v  61.9847 -0.5000 -25.0000
v  -13.0153 -0.5000 -50.0000
v  -38.0153 -0.5000 -50.0000
v  11.9847 -0.5000 -50.0000
v  36.9847 -0.5000 -50.0000
v  61.9847 -0.5000 -50.0000
v  -61.9847 -0.5000 -25.0000
v  -61.9847 -0.5000 -0.0000
v  -61.9847 -0.5000 -50.0000
# 50 vertices

vn 0.0000 1.0000 -0.0000
vn 0.0000 -1.0000 -0.0000
vn 0.0000 0.0000 1.0000
vn -1.0000 0.0000 -0.0000
vn 1.0000 0.0000 -0.0000
vn 0.0000 0.0000 -1.0000
# 6 vertex normals

vt 0.2500 0.0000 0.0000
vt 0.5000 0.0000 0.0000
vt 0.5000 0.2500 0.0000
vt 0.2500 0.2500 0.0000
vt 0.7500 0.0000 0.0000
vt 0.7500 0.2500 0.0000
vt 0.5000 0.5000 0.0000
vt 0.2500 0.5000 0.0000
vt 0.7500 0.5000 0.0000
vt 1.0000 0.2500 0.0000
vt 1.0000 0.5000 0.0000
vt 0.0000 0.5000 0.0000
vt 0.2500 0.7500 0.0000
vt 0.0000 0.7500 0.0000
vt 0.5000 0.7500 0.0000
vt 0.7500 0.7500 0.0000
vt 1.0000 0.7500 0.0000
vt 0.2500 1.0000 0.0000
vt 0.0000 1.0000 0.0000
vt 0.5000 1.0000 0.0000
vt 0.7500 1.0000 0.0000
vt 1.0000 1.0000 0.0000
# 22 texture coords

g floor
usemtl floor
s 1
f 1/1/1 2/2/1 3/3/1 4/4/1 
f 2/2/1 5/5/1 6/6/1 3/3/1 
f 4/4/1 3/3/1 7/7/1 8/8/1 
f 3/3/1 6/6/1 9/9/1 7/7/1 
f 6/6/1 10/10/1 11/11/1 9/9/1 
f 12/12/1 8/8/1 13/13/1 14/14/1 
f 8/8/1 7/7/1 15/15/1 13/13/1 
f 7/7/1 9/9/1 16/16/1 15/15/1 
f 9/9/1 11/11/1 17/17/1 16/16/1 
f 14/14/1 13/13/1 18/18/1 19/19/1 
f 13/13/1 15/15/1 20/20/1 18/18/1 
f 15/15/1 16/16/1 21/21/1 20/20/1 
f 16/16/1 17/17/1 22/22/1 21/21/1 
s off
f 12/12/1 14/14/1 23/14/1 24/12/1 
f 14/14/1 19/19/1 25/19/1 23/14/1 
s 1
f 26/3/2 27/2/2 28/1/2 29/4/2 
f 30/6/2 31/5/2 27/2/2 26/3/2 
f 32/7/2 26/3/2 29/4/2 33/8/2 
f 34/9/2 30/6/2 26/3/2 32/7/2 
f 35/11/2 36/10/2 30/6/2 34/9/2 
f 37/13/2 33/8/2 38/12/2 39/14/2 
f 40/15/2 32/7/2 33/8/2 37/13/2 
f 41/16/2 34/9/2 32/7/2 40/15/2 
f 42/17/2 35/11/2 34/9/2 41/16/2 
f 43/18/2 37/13/2 39/14/2 44/19/2 
f 45/20/2 40/15/2 37/13/2 43/18/2 
f 46/21/2 41/16/2 40/15/2 45/20/2 
f 47/22/2 42/17/2 41/16/2 46/21/2 
s off
f 48/14/2 39/14/2 38/12/2 49/12/2 
f 50/19/2 44/19/2 39/14/2 48/14/2 
s 2
f 2/2/3 1/1/3 28/1/3 27/2/3 
s 4
f 1/1/4 4/4/4 29/4/4 28/1/4 
s 2
f 5/5/3 2/2/3 27/2/3 31/5/3 
s 4
f 6/6/5 5/5/5 31/5/5 30/6/5 
f 4/4/4 8/8/4 33/8/4 29/4/4 
s 2
f 10/10/3 6/6/3 30/6/3 36/10/3 
s 4
f 11/11/5 10/10/5 36/10/5 35/11/5 
s 2
f 8/8/3 12/12/3 38/12/3 33/8/3 
s 4
f 17/17/5 11/11/5 35/11/5 42/17/5 
s 2
f 19/19/6 18/18/6 43/18/6 44/19/6 
f 18/18/6 20/20/6 45/20/6 43/18/6 
f 20/20/6 21/21/6 46/21/6 45/20/6 
s 4
f 22/22/5 17/17/5 42/17/5 47/22/5 
s 2
f 21/21/6 22/22/6 47/22/6 46/21/6 
s 1
f 24/12/4 23/14/4 48/14/4 49/12/4 
s 2
f 12/12/3 24/12/3 49/12/3 38/12/3 
f 25/19/6 19/19/6 44/19/6 50/19/6 
s 1
f 23/14/4 25/19/4 50/19/4 48/14/4 
# 48 polygons

